REM MD5 42b5c298c6ec31232450c08dce544ed2
FILE "VR Baseball '97 (USA).bin" BINARY
  TRACK 01 MODE2/2352
    INDEX 01 00:00:00
  TRACK 02 AUDIO
    INDEX 00 28:38:24
    INDEX 01 28:40:24
  TRACK 03 AUDIO
    INDEX 00 29:20:44
    INDEX 01 29:22:44
  TRACK 04 AUDIO
    INDEX 00 29:58:68
    INDEX 01 30:00:68
REM LEADOUT 33:10:13
